<svg xmlns="http://www.w3.org/2000/svg" viewBox="0 0 48 48"><circle cx="24" cy="24" r="24" fill="#FFFC00"/><path d="M24 10c-3.9 0-7 3.1-7 7v1c-.7.1-1.5.3-2 .7-.3.2-.4.6-.2.9.5.9 1.9 1.4 2.3 1.6-.1.3-.2.6-.4.8-.5.7-1.4 1-2.4 1-.3 0-.5.2-.5.5s.2.5.5.5c1.4 0 2.7.7 3.3 1.8.1.2.3.3.5.3.1 0 .2 0 .3-.1.5-.2 1-.3 1.5-.3.4 0 .8.1 1.2.3.4.2.8.3 1.3.3.5 0 .9-.1 1.3-.3.4-.2.8-.3 1.2-.3.5 0 1 .1 1.5.3.1 0 .2.1.3.1.2 0 .4-.1.5-.3.6-1.1 1.9-1.8 3.3-1.8.3 0 .5-.2.5-.5s-.2-.5-.5-.5c-1 0-1.9-.4-2.4-1-.2-.2-.3-.5-.4-.8.4-.1 1.8-.7 2.3-1.6.2-.3.1-.7-.2-.9-.5-.4-1.3-.6-2-.7v-1c0-3.9-3.1-7-7-7z" fill="#fff"/></svg>
