<svg xmlns="http://www.w3.org/2000/svg" viewBox="0 0 48 48"><circle cx="24" cy="24" r="24" fill="#25D366"/><path d="M24 10.4C16.5 10.4 10.4 16.5 10.4 24c0 2.4.6 4.7 1.8 6.7L10 38l7.5-2.2c1.9 1 4 1.6 6.2 1.6C31.5 37.4 37.6 31.3 37.6 24S31.5 10.4 24 10.4zm6.5 18.3c-.3.8-1.5 1.5-2.1 1.6-.5.1-1.2.1-1.9-.1-.4-.1-1-.3-1.7-.6-3-1.3-5-4.3-5.1-4.5-.1-.2-1.1-1.5-1.1-2.8 0-1.3.7-1.9 1-2.2.3-.3.6-.4.8-.4h.6c.2 0 .4 0 .6.5.2.5.8 1.9.9 2 .1.2.1.4 0 .6-.1.2-.2.4-.4.6-.2.2-.4.5-.6.6-.2.2-.4.4-.2.8.2.4.9 1.5 1.9 2.4 1.3 1.2 2.4 1.6 2.8 1.7.3.1.6.1.8-.1.2-.2.8-.9 1-1.2.2-.3.4-.2.7-.1.3.1 1.9.9 2.2 1.1.3.2.5.3.6.4.1.4-.1 1.4-.4 2.2z" fill="#fff"/></svg>
